<svg xmlns="http://www.w3.org/2000/svg" viewBox="0 0 231 48" fill="#201B21"><defs><clipPath id="lghA"><path d="M-54.1 86.5 L102.1 -38.5 L164.6 39.6 L8.4 164.6 Z"/></clipPath><clipPath id="lghB"><path d="M-54.1 86.5 L102.1 -38.5 L39.6 -116.6 L-116.6 8.4 Z"/></clipPath><clipPath id="lglow1"><rect x="-60" y="30.0" width="170" height="170"/></clipPath><clipPath id="lgup2"><rect x="-60" y="-60" width="170" height="78.0"/></clipPath><mask id="lgr1"><rect x="-60" y="-60" width="170" height="170" fill="#fff"/><path fill-rule="evenodd" d="M19.9 18.0 a11.6 11.6 0 1 0 23.2 0 a11.6 11.6 0 1 0 -23.2 0 Z M28.0 18.0 a3.4999999999999996 3.4999999999999996 0 1 0 6.999999999999999 0 a3.4999999999999996 3.4999999999999996 0 1 0 -6.999999999999999 0 Z" fill="#000" clip-path="url(#lghA)"/></mask><mask id="lgr2"><rect x="-60" y="-60" width="170" height="170" fill="#fff"/><path fill-rule="evenodd" d="M4.9 30.0 a11.6 11.6 0 1 0 23.2 0 a11.6 11.6 0 1 0 -23.2 0 Z M13.0 30.0 a3.4999999999999996 3.4999999999999996 0 1 0 6.999999999999999 0 a3.4999999999999996 3.4999999999999996 0 1 0 -6.999999999999999 0 Z" fill="#000" clip-path="url(#lghB)"/></mask><mask id="lgsp"><rect x="-60" y="-60" width="170" height="170" fill="#fff"/><path fill-rule="evenodd" d="M4.9 30.0 a11.6 11.6 0 1 0 23.2 0 a11.6 11.6 0 1 0 -23.2 0 Z M13.0 30.0 a3.4999999999999996 3.4999999999999996 0 1 0 6.999999999999999 0 a3.4999999999999996 3.4999999999999996 0 1 0 -6.999999999999999 0 Z" fill="#000" clip-path="url(#lglow1)"/><path fill-rule="evenodd" d="M19.9 18.0 a11.6 11.6 0 1 0 23.2 0 a11.6 11.6 0 1 0 -23.2 0 Z M28.0 18.0 a3.4999999999999996 3.4999999999999996 0 1 0 6.999999999999999 0 a3.4999999999999996 3.4999999999999996 0 1 0 -6.999999999999999 0 Z" fill="#000" clip-path="url(#lgup2)"/></mask></defs><path d="M21.8 6.4 a2.4 2.4 0 0 1 2.4 -2.4 h0.0 a2.4 2.4 0 0 1 2.4 2.4 v35.2 a2.4 2.4 0 0 1 -2.4 2.4 h-0.0 a2.4 2.4 0 0 1 -2.4 -2.4 Z" mask="url(#lgsp)"/><path fill-rule="evenodd" d="M6.5 30.0 a10.0 10.0 0 1 0 20.0 0 a10.0 10.0 0 1 0 -20.0 0 Z M11.4 30.0 a5.1 5.1 0 1 0 10.2 0 a5.1 5.1 0 1 0 -10.2 0 Z" mask="url(#lgr1)"/><path fill-rule="evenodd" d="M21.5 18.0 a10.0 10.0 0 1 0 20.0 0 a10.0 10.0 0 1 0 -20.0 0 Z M26.4 18.0 a5.1 5.1 0 1 0 10.2 0 a5.1 5.1 0 1 0 -10.2 0 Z" mask="url(#lgr2)"/><path d="M63.588 33.544Q61.208 33.544 59.304 32.370999999999995Q57.4 31.198 56.295 29.124000000000002Q55.19 27.05 55.19 24.33Q55.19 21.61 56.295 19.536Q57.4 17.462 59.304 16.289Q61.208 15.116 63.588 15.116Q64.846 15.116 65.866 15.489999999999998Q66.886 15.863999999999997 67.634 16.476Q68.382 17.088 68.79 17.768H69.062L68.79 15.32V8.655999999999999H73.21000000000001V33.0H69.062V30.926H68.79Q68.382 31.606 67.634 32.201Q66.886 32.796 65.866 33.17Q64.846 33.544 63.588 33.544ZM64.336 29.43Q65.594 29.43 66.66499999999999 28.784Q67.736 28.137999999999998 68.399 26.999Q69.062 25.86 69.062 24.33Q69.062 22.799999999999997 68.399 21.660999999999998Q67.736 20.522 66.66499999999999 19.893Q65.594 19.264 64.336 19.264Q63.112 19.264 62.041 19.893Q60.97 20.522 60.307 21.644Q59.644 22.766 59.644 24.33Q59.644 25.86 60.307 27.016Q60.97 28.172 62.041 28.801000000000002Q63.112 29.43 64.336 29.43Z M82.83200000000001 33.544Q80.99600000000001 33.544 79.58500000000001 32.813Q78.174 32.082 77.358 30.756Q76.542 29.43 76.542 27.695999999999998Q76.542 25.894 77.477 24.601999999999997Q78.412 23.31 79.993 22.595999999999997Q81.574 21.881999999999998 83.512 21.881999999999998Q84.566 21.881999999999998 85.433 22.000999999999998Q86.30000000000001 22.119999999999997 86.98000000000002 22.29Q87.66000000000001 22.46 88.102 22.664V21.915999999999997Q88.102 20.522 87.048 19.621Q85.994 18.72 84.158 18.72Q82.934 18.72 81.795 19.281Q80.656 19.842 79.908 20.759999999999998L77.052 18.516Q77.902 17.427999999999997 79.024 16.662999999999997Q80.146 15.898 81.506 15.507Q82.866 15.116 84.36200000000001 15.116Q88.34 15.116 90.414 16.951999999999998Q92.488 18.787999999999997 92.488 22.323999999999998V33.0H88.102V31.232H87.83000000000001Q87.354 31.844 86.64 32.371Q85.926 32.898 84.974 33.221000000000004Q84.022 33.544 82.83200000000001 33.544ZM83.88600000000001 30.076Q85.24600000000001 30.076 86.18100000000001 29.481Q87.116 28.886 87.60900000000001 27.933999999999997Q88.102 26.982 88.102 25.927999999999997Q87.354 25.554 86.402 25.333Q85.45 25.112 84.464 25.112Q82.492 25.112 81.744 25.86Q80.99600000000001 26.608 80.99600000000001 27.695999999999998Q80.99600000000001 28.716 81.727 29.396Q82.458 30.076 83.88600000000001 30.076Z M94.732 19.467999999999996V15.66H97.92800000000001V19.467999999999996ZM103.504 33.272Q100.81800000000001 33.272 99.28800000000001 31.725Q97.75800000000001 30.178 97.75800000000001 27.458V10.764H102.212V26.642Q102.212 27.9 102.72200000000001 28.494999999999997Q103.232 29.09 104.388 29.09Q104.932 29.09 105.408 28.936999999999998Q105.884 28.784 106.59800000000001 28.342V32.694Q105.85000000000001 32.966 105.08500000000001 33.119Q104.32000000000001 33.272 103.504 33.272ZM102.042 19.467999999999996V15.66H106.462V19.467999999999996Z M115.132 33.544Q113.296 33.544 111.885 32.813Q110.474 32.082 109.658 30.756Q108.842 29.43 108.842 27.695999999999998Q108.842 25.894 109.777 24.601999999999997Q110.712 23.31 112.293 22.595999999999997Q113.874 21.881999999999998 115.812 21.881999999999998Q116.866 21.881999999999998 117.733 22.000999999999998Q118.6 22.119999999999997 119.28 22.29Q119.96000000000001 22.46 120.402 22.664V21.915999999999997Q120.402 20.522 119.348 19.621Q118.294 18.72 116.458 18.72Q115.23400000000001 18.72 114.095 19.281Q112.956 19.842 112.208 20.759999999999998L109.352 18.516Q110.202 17.427999999999997 111.324 16.662999999999997Q112.446 15.898 113.806 15.507Q115.166 15.116 116.662 15.116Q120.64 15.116 122.714 16.951999999999998Q124.78800000000001 18.787999999999997 124.78800000000001 22.323999999999998V33.0H120.402V31.232H120.13Q119.654 31.844 118.94 32.371Q118.226 32.898 117.274 33.221000000000004Q116.322 33.544 115.132 33.544ZM116.186 30.076Q117.546 30.076 118.481 29.481Q119.416 28.886 119.90899999999999 27.933999999999997Q120.402 26.982 120.402 25.927999999999997Q119.654 25.554 118.702 25.333Q117.75 25.112 116.764 25.112Q114.792 25.112 114.04400000000001 25.86Q113.296 26.608 113.296 27.695999999999998Q113.296 28.716 114.027 29.396Q114.758 30.076 116.186 30.076Z M128.834 40.344V15.66H133.01600000000002V17.768H133.288Q133.73000000000002 17.088 134.461 16.476Q135.192 15.863999999999997 136.212 15.489999999999998Q137.232 15.116 138.49 15.116Q140.87 15.116 142.757 16.289Q144.644 17.462 145.74900000000002 19.536Q146.854 21.61 146.854 24.33Q146.854 27.05 145.74900000000002 29.124000000000002Q144.644 31.198 142.757 32.370999999999995Q140.87 33.544 138.49 33.544Q136.62 33.544 135.277 32.745Q133.934 31.946 133.288 30.926H133.01600000000002L133.288 33.374V40.344ZM137.708 29.43Q138.966 29.43 140.037 28.801000000000002Q141.108 28.172 141.77100000000002 27.016Q142.434 25.86 142.434 24.33Q142.434 22.766 141.77100000000002 21.644Q141.108 20.522 140.037 19.893Q138.966 19.264 137.708 19.264Q136.484 19.264 135.413 19.893Q134.342 20.522 133.67900000000003 21.660999999999998Q133.01600000000002 22.799999999999997 133.01600000000002 24.33Q133.01600000000002 25.86 133.67900000000003 26.999Q134.342 28.137999999999998 135.413 28.784Q136.484 29.43 137.708 29.43Z M150.186 33.0V8.655999999999999H154.64000000000001V33.0Z M167.05 33.544Q164.43200000000002 33.544 162.375 32.354Q160.318 31.164 159.145 29.09Q157.972 27.016 157.972 24.363999999999997Q157.972 21.881999999999998 159.12800000000001 19.773999999999997Q160.28400000000002 17.665999999999997 162.29000000000002 16.391Q164.29600000000002 15.116 166.88000000000002 15.116Q169.668 15.116 171.572 16.305999999999997Q173.476 17.496 174.462 19.485Q175.448 21.473999999999997 175.448 23.887999999999998Q175.448 24.432 175.41400000000002 24.823Q175.38000000000002 25.214 175.346 25.384H160.454V22.222H171.16400000000002Q171.13000000000002 21.644 170.824 21.032Q170.518 20.42 169.974 19.91Q169.43 19.4 168.66500000000002 19.076999999999998Q167.9 18.753999999999998 166.91400000000002 18.753999999999998Q165.622 18.753999999999998 164.55100000000002 19.433999999999997Q163.48000000000002 20.113999999999997 162.868 21.320999999999998Q162.256 22.528 162.256 24.194Q162.256 25.927999999999997 162.902 27.134999999999998Q163.548 28.342 164.65300000000002 28.971Q165.758 29.6 167.11800000000002 29.6Q168.716 29.6 169.80400000000003 28.903Q170.89200000000002 28.206 171.50400000000002 27.152L175.108 28.92Q173.88400000000001 31.062 171.912 32.303Q169.94 33.544 167.05 33.544Z M176.16200000000003 33.0 183.50600000000003 22.256H183.94800000000004L188.06200000000004 15.66H193.50200000000004L186.12400000000002 25.996H185.95400000000004L181.43200000000002 33.0ZM176.19600000000003 15.66H181.46600000000004L185.95400000000004 22.392H186.15800000000002L193.50200000000004 33.0H188.23200000000003L183.57400000000004 25.927999999999997H183.40400000000002Z M204.13825000000003 33.544Q201.424 33.544 199.33300000000003 32.336999999999996Q197.24200000000002 31.13 196.06900000000002 29.039Q194.89600000000002 26.948 194.89600000000002 24.33Q194.89600000000002 21.712 196.06900000000002 19.621000000000002Q197.24200000000002 17.53 199.32912500000003 16.323Q201.41625000000002 15.116 204.140125 15.116Q206.86400000000003 15.116 208.93505945945947 16.344336734693876Q211.00611891891893 17.57267346938775 212.18205945945948 19.642336734693878Q213.358 21.712 213.358 24.33Q213.358 26.948 212.185 29.039Q211.01200000000003 31.13 208.93225 32.336999999999996Q206.85250000000002 33.544 204.13825000000003 33.544ZM204.144 29.396Q205.436 29.396 206.5081679389313 28.794933333333333Q207.5803358778626 28.193866666666665 208.24216793893132 27.057066666666664Q208.90400000000002 25.920266666666667 208.90400000000002 24.32613333333333Q208.90400000000002 22.732 208.24100000000004 21.61Q207.57800000000003 20.488 206.507 19.875999999999998Q205.436 19.264 204.16100000000003 19.264Q202.88600000000002 19.264 201.781 19.875999999999998Q200.67600000000002 20.488 200.01300000000003 21.617236486486487Q199.35000000000002 22.746472972972974 199.35000000000002 24.33Q199.35000000000002 25.92754054054054 200.01300000000003 27.06677027027027Q200.67600000000002 28.206 201.78684375 28.801000000000002Q202.89768750000002 29.396 204.144 29.396Z M216.69000000000003 33.0V15.66H220.87200000000004V17.972H221.14400000000003Q221.58600000000004 17.156 222.31700000000004 16.527Q223.04800000000003 15.898 224.03400000000005 15.524Q225.02000000000004 15.149999999999999 226.14200000000002 15.149999999999999Q226.82200000000003 15.149999999999999 227.36600000000004 15.251999999999999Q227.91000000000003 15.354 228.31800000000004 15.523999999999997V19.978Q227.60400000000004 19.706 226.90700000000004 19.519Q226.21000000000004 19.332 225.42800000000003 19.332Q224.10200000000003 19.332 223.13300000000004 19.995Q222.16400000000004 20.658 221.65400000000005 21.797Q221.14400000000003 22.936 221.14400000000003 24.363999999999997V33.0Z"/></svg>
